<svg xmlns="http://www.w3.org/2000/svg" width="1672" height="941" viewBox="0 0 1672 941">
<defs>
<linearGradient id="g" x1="0" y1="0" x2="1" y2="1"><stop stop-color="#A72126"/><stop offset=".62" stop-color="#7f1118"/><stop offset="1" stop-color="#f5c66b"/></linearGradient>
<radialGradient id="halo" cx=".72" cy=".28" r=".58"><stop stop-color="#f5c66b" stop-opacity=".46"/><stop offset=".62" stop-color="#f5c66b" stop-opacity=".10"/><stop offset="1" stop-color="#A72126" stop-opacity="0"/></radialGradient>
<pattern id="grid" width="64" height="64" patternUnits="userSpaceOnUse"><path d="M64 0H0V64" fill="none" stroke="rgba(255,255,255,.13)" stroke-width="1"/></pattern>
<pattern id="micro" width="18" height="18" patternUnits="userSpaceOnUse"><path d="M2 9H16M9 2V16" stroke="rgba(255,255,255,.10)" stroke-width=".8"/></pattern>
</defs>
<rect width="1672" height="941" fill="url(#g)"/>
<image href="../ppt-media/image48.png" x="0" y="0" width="1672" height="941" preserveAspectRatio="xMidYMid slice" opacity=".16" style="mix-blend-mode:screen"/>
<rect width="1672" height="941" fill="url(#grid)" opacity=".7"/>
<rect width="1672" height="941" fill="url(#micro)" opacity=".44"/>
<rect width="1672" height="941" fill="url(#halo)"/>
<image href="../ppt-media/image12.png" x="-120" y="-20" width="1920" opacity=".28"/><image href="../ppt-media/image34.png" x="900" y="-120" width="640" opacity=".18"/>
<image href="../hit-shenzhen/hit-building.png" x="850" y="292" width="850" opacity=".24"/>
<image href="../hit-shenzhen/hit-building.png" x="-60" y="606" width="720" opacity=".10"/>
<image href="../hit-shenzhen/hit-motto-gold.png" x="68" y="622" width="560" opacity=".22"/>
<image href="../ppt-media/image25.png" x="1070" y="250" width="620" opacity=".12"/>
<g opacity=".16" fill="none" stroke="#f5c66b" stroke-width="3" stroke-linejoin="round">
<path d="M0 740H1700"/>
<path d="M88 740V680H145V626H220V690H286V610H350V740"/>
<path d="M446 740V642H500V580H550V516H600V580H652V642H706V740"/>
<path d="M815 740V620H886V564H948V500H1005V564H1068V620H1138V740"/>
<path d="M1260 740V650H1328V598H1390V650H1460V740"/>
</g>
<g opacity=".34" stroke="#f5c66b" stroke-width="1.4" fill="none">
<path d="M80 610 C230 510 370 690 520 570 S780 520 940 642 1240 700 1506 520"/>
<path d="M180 250 C330 190 474 300 620 238 S900 170 1084 260 1350 345 1510 214" stroke-dasharray="10 14"/>
<circle cx="1180" cy="260" r="180"/><circle cx="1180" cy="260" r="104" stroke-dasharray="9 12"/>
</g>
<g opacity="0.18">
<rect x="1325" y="32" width="10" height="34" rx="2" fill="#f5c66b" opacity="0.1296" transform="rotate(7 1330 170)"/><rect x="1325" y="32" width="10" height="34" rx="2" fill="#f5c66b" opacity="0.1296" transform="rotate(22 1330 170)"/><rect x="1325" y="32" width="10" height="34" rx="2" fill="#f5c66b" opacity="0.1296" transform="rotate(37 1330 170)"/><rect x="1325" y="32" width="10" height="34" rx="2" fill="#f5c66b" opacity="0.1296" transform="rotate(52 1330 170)"/><rect x="1325" y="32" width="10" height="34" rx="2" fill="#f5c66b" opacity="0.1296" transform="rotate(67 1330 170)"/><rect x="1325" y="32" width="10" height="34" rx="2" fill="#f5c66b" opacity="0.1296" transform="rotate(82 1330 170)"/><rect x="1325" y="32" width="10" height="34" rx="2" fill="#f5c66b" opacity="0.1296" transform="rotate(97 1330 170)"/><rect x="1325" y="32" width="10" height="34" rx="2" fill="#f5c66b" opacity="0.1296" transform="rotate(112 1330 170)"/><rect x="1325" y="32" width="10" height="34" rx="2" fill="#f5c66b" opacity="0.1296" transform="rotate(127 1330 170)"/><rect x="1325" y="32" width="10" height="34" rx="2" fill="#f5c66b" opacity="0.1296" transform="rotate(142 1330 170)"/><rect x="1325" y="32" width="10" height="34" rx="2" fill="#f5c66b" opacity="0.1296" transform="rotate(157 1330 170)"/><rect x="1325" y="32" width="10" height="34" rx="2" fill="#f5c66b" opacity="0.1296" transform="rotate(172 1330 170)"/><rect x="1325" y="32" width="10" height="34" rx="2" fill="#f5c66b" opacity="0.1296" transform="rotate(187 1330 170)"/><rect x="1325" y="32" width="10" height="34" rx="2" fill="#f5c66b" opacity="0.1296" transform="rotate(202 1330 170)"/><rect x="1325" y="32" width="10" height="34" rx="2" fill="#f5c66b" opacity="0.1296" transform="rotate(217 1330 170)"/><rect x="1325" y="32" width="10" height="34" rx="2" fill="#f5c66b" opacity="0.1296" transform="rotate(232 1330 170)"/><rect x="1325" y="32" width="10" height="34" rx="2" fill="#f5c66b" opacity="0.1296" transform="rotate(247 1330 170)"/><rect x="1325" y="32" width="10" height="34" rx="2" fill="#f5c66b" opacity="0.1296" transform="rotate(262 1330 170)"/><rect x="1325" y="32" width="10" height="34" rx="2" fill="#f5c66b" opacity="0.1296" transform="rotate(277 1330 170)"/><rect x="1325" y="32" width="10" height="34" rx="2" fill="#f5c66b" opacity="0.1296" transform="rotate(292 1330 170)"/><rect x="1325" y="32" width="10" height="34" rx="2" fill="#f5c66b" opacity="0.1296" transform="rotate(307 1330 170)"/><rect x="1325" y="32" width="10" height="34" rx="2" fill="#f5c66b" opacity="0.1296" transform="rotate(322 1330 170)"/><rect x="1325" y="32" width="10" height="34" rx="2" fill="#f5c66b" opacity="0.1296" transform="rotate(337 1330 170)"/><rect x="1325" y="32" width="10" height="34" rx="2" fill="#f5c66b" opacity="0.1296" transform="rotate(352 1330 170)"/>
<circle cx="1330" cy="170" r="120" fill="none" stroke="#f5c66b" stroke-width="5"/>
<circle cx="1330" cy="170" r="86.39999999999999" fill="none" stroke="#f5c66b" stroke-width="2" stroke-dasharray="12 10"/>
<circle cx="1330" cy="170" r="33.6" fill="none" stroke="#f5c66b" stroke-width="4"/>
</g>
<g opacity="0.14">
<rect x="1455" y="572" width="10" height="34" rx="2" fill="#f5c66b" opacity="0.1008" transform="rotate(-11 1460 680)"/><rect x="1455" y="572" width="10" height="34" rx="2" fill="#f5c66b" opacity="0.1008" transform="rotate(4 1460 680)"/><rect x="1455" y="572" width="10" height="34" rx="2" fill="#f5c66b" opacity="0.1008" transform="rotate(19 1460 680)"/><rect x="1455" y="572" width="10" height="34" rx="2" fill="#f5c66b" opacity="0.1008" transform="rotate(34 1460 680)"/><rect x="1455" y="572" width="10" height="34" rx="2" fill="#f5c66b" opacity="0.1008" transform="rotate(49 1460 680)"/><rect x="1455" y="572" width="10" height="34" rx="2" fill="#f5c66b" opacity="0.1008" transform="rotate(64 1460 680)"/><rect x="1455" y="572" width="10" height="34" rx="2" fill="#f5c66b" opacity="0.1008" transform="rotate(79 1460 680)"/><rect x="1455" y="572" width="10" height="34" rx="2" fill="#f5c66b" opacity="0.1008" transform="rotate(94 1460 680)"/><rect x="1455" y="572" width="10" height="34" rx="2" fill="#f5c66b" opacity="0.1008" transform="rotate(109 1460 680)"/><rect x="1455" y="572" width="10" height="34" rx="2" fill="#f5c66b" opacity="0.1008" transform="rotate(124 1460 680)"/><rect x="1455" y="572" width="10" height="34" rx="2" fill="#f5c66b" opacity="0.1008" transform="rotate(139 1460 680)"/><rect x="1455" y="572" width="10" height="34" rx="2" fill="#f5c66b" opacity="0.1008" transform="rotate(154 1460 680)"/><rect x="1455" y="572" width="10" height="34" rx="2" fill="#f5c66b" opacity="0.1008" transform="rotate(169 1460 680)"/><rect x="1455" y="572" width="10" height="34" rx="2" fill="#f5c66b" opacity="0.1008" transform="rotate(184 1460 680)"/><rect x="1455" y="572" width="10" height="34" rx="2" fill="#f5c66b" opacity="0.1008" transform="rotate(199 1460 680)"/><rect x="1455" y="572" width="10" height="34" rx="2" fill="#f5c66b" opacity="0.1008" transform="rotate(214 1460 680)"/><rect x="1455" y="572" width="10" height="34" rx="2" fill="#f5c66b" opacity="0.1008" transform="rotate(229 1460 680)"/><rect x="1455" y="572" width="10" height="34" rx="2" fill="#f5c66b" opacity="0.1008" transform="rotate(244 1460 680)"/><rect x="1455" y="572" width="10" height="34" rx="2" fill="#f5c66b" opacity="0.1008" transform="rotate(259 1460 680)"/><rect x="1455" y="572" width="10" height="34" rx="2" fill="#f5c66b" opacity="0.1008" transform="rotate(274 1460 680)"/><rect x="1455" y="572" width="10" height="34" rx="2" fill="#f5c66b" opacity="0.1008" transform="rotate(289 1460 680)"/><rect x="1455" y="572" width="10" height="34" rx="2" fill="#f5c66b" opacity="0.1008" transform="rotate(304 1460 680)"/><rect x="1455" y="572" width="10" height="34" rx="2" fill="#f5c66b" opacity="0.1008" transform="rotate(319 1460 680)"/><rect x="1455" y="572" width="10" height="34" rx="2" fill="#f5c66b" opacity="0.1008" transform="rotate(334 1460 680)"/>
<circle cx="1460" cy="680" r="90" fill="none" stroke="#f5c66b" stroke-width="5"/>
<circle cx="1460" cy="680" r="64.8" fill="none" stroke="#f5c66b" stroke-width="2" stroke-dasharray="12 10"/>
<circle cx="1460" cy="680" r="25.200000000000003" fill="none" stroke="#f5c66b" stroke-width="4"/>
</g>
<g opacity="0.13">
<rect x="355" y="596" width="10" height="34" rx="2" fill="#f5c66b" opacity="0.0936" transform="rotate(12 360 690)"/><rect x="355" y="596" width="10" height="34" rx="2" fill="#f5c66b" opacity="0.0936" transform="rotate(27 360 690)"/><rect x="355" y="596" width="10" height="34" rx="2" fill="#f5c66b" opacity="0.0936" transform="rotate(42 360 690)"/><rect x="355" y="596" width="10" height="34" rx="2" fill="#f5c66b" opacity="0.0936" transform="rotate(57 360 690)"/><rect x="355" y="596" width="10" height="34" rx="2" fill="#f5c66b" opacity="0.0936" transform="rotate(72 360 690)"/><rect x="355" y="596" width="10" height="34" rx="2" fill="#f5c66b" opacity="0.0936" transform="rotate(87 360 690)"/><rect x="355" y="596" width="10" height="34" rx="2" fill="#f5c66b" opacity="0.0936" transform="rotate(102 360 690)"/><rect x="355" y="596" width="10" height="34" rx="2" fill="#f5c66b" opacity="0.0936" transform="rotate(117 360 690)"/><rect x="355" y="596" width="10" height="34" rx="2" fill="#f5c66b" opacity="0.0936" transform="rotate(132 360 690)"/><rect x="355" y="596" width="10" height="34" rx="2" fill="#f5c66b" opacity="0.0936" transform="rotate(147 360 690)"/><rect x="355" y="596" width="10" height="34" rx="2" fill="#f5c66b" opacity="0.0936" transform="rotate(162 360 690)"/><rect x="355" y="596" width="10" height="34" rx="2" fill="#f5c66b" opacity="0.0936" transform="rotate(177 360 690)"/><rect x="355" y="596" width="10" height="34" rx="2" fill="#f5c66b" opacity="0.0936" transform="rotate(192 360 690)"/><rect x="355" y="596" width="10" height="34" rx="2" fill="#f5c66b" opacity="0.0936" transform="rotate(207 360 690)"/><rect x="355" y="596" width="10" height="34" rx="2" fill="#f5c66b" opacity="0.0936" transform="rotate(222 360 690)"/><rect x="355" y="596" width="10" height="34" rx="2" fill="#f5c66b" opacity="0.0936" transform="rotate(237 360 690)"/><rect x="355" y="596" width="10" height="34" rx="2" fill="#f5c66b" opacity="0.0936" transform="rotate(252 360 690)"/><rect x="355" y="596" width="10" height="34" rx="2" fill="#f5c66b" opacity="0.0936" transform="rotate(267 360 690)"/><rect x="355" y="596" width="10" height="34" rx="2" fill="#f5c66b" opacity="0.0936" transform="rotate(282 360 690)"/><rect x="355" y="596" width="10" height="34" rx="2" fill="#f5c66b" opacity="0.0936" transform="rotate(297 360 690)"/><rect x="355" y="596" width="10" height="34" rx="2" fill="#f5c66b" opacity="0.0936" transform="rotate(312 360 690)"/><rect x="355" y="596" width="10" height="34" rx="2" fill="#f5c66b" opacity="0.0936" transform="rotate(327 360 690)"/><rect x="355" y="596" width="10" height="34" rx="2" fill="#f5c66b" opacity="0.0936" transform="rotate(342 360 690)"/><rect x="355" y="596" width="10" height="34" rx="2" fill="#f5c66b" opacity="0.0936" transform="rotate(357 360 690)"/>
<circle cx="360" cy="690" r="76" fill="none" stroke="#f5c66b" stroke-width="5"/>
<circle cx="360" cy="690" r="54.72" fill="none" stroke="#f5c66b" stroke-width="2" stroke-dasharray="12 10"/>
<circle cx="360" cy="690" r="21.28" fill="none" stroke="#f5c66b" stroke-width="4"/>
</g>
<path d="M-80 760 C350 610 640 860 1040 690 C1260 596 1480 660 1740 530" fill="none" stroke="#f5c66b" opacity=".28" stroke-width="14"/>
<path d="M-60 790 C360 662 650 865 1050 728 C1280 650 1490 710 1740 590" fill="none" stroke="#fff" opacity=".13" stroke-width="34"/>
<text x="82" y="130" fill="rgba(255,255,255,.86)" opacity=".18" font-size="40" font-family="Georgia,serif" font-weight="700">CAMPAIGN STAGE</text>
</svg>