<svg xmlns="http://www.w3.org/2000/svg" width="1672" height="941" viewBox="0 0 1672 941">
<defs>
<linearGradient id="g" x1="0" y1="0" x2="1" y2="1"><stop stop-color="#fbf4e6"/><stop offset=".62" stop-color="#cfe8f0"/><stop offset="1" stop-color="#70c7b2"/></linearGradient>
<radialGradient id="halo" cx=".72" cy=".28" r=".58"><stop stop-color="#70c7b2" stop-opacity=".46"/><stop offset=".62" stop-color="#70c7b2" stop-opacity=".10"/><stop offset="1" stop-color="#fbf4e6" stop-opacity="0"/></radialGradient>
<pattern id="grid" width="64" height="64" patternUnits="userSpaceOnUse"><path d="M64 0H0V64" fill="none" stroke="rgba(0,83,117,.12)" stroke-width="1"/></pattern>
<pattern id="micro" width="18" height="18" patternUnits="userSpaceOnUse"><path d="M2 9H16M9 2V16" stroke="rgba(0,83,117,.09)" stroke-width=".8"/></pattern>
</defs>
<rect width="1672" height="941" fill="url(#g)"/>
<image href="../ppt-media/image30.jpeg" x="0" y="0" width="1672" height="941" preserveAspectRatio="xMidYMid slice" opacity=".12" style="mix-blend-mode:multiply"/>
<rect width="1672" height="941" fill="url(#grid)" opacity=".7"/>
<rect width="1672" height="941" fill="url(#micro)" opacity=".44"/>
<rect width="1672" height="941" fill="url(#halo)"/>

<image href="../hit-shenzhen/hit-building.png" x="650" y="318" width="980" opacity=".18"/>
<image href="../hit-shenzhen/hit-building.png" x="-60" y="606" width="720" opacity=".07"/>
<image href="../hit-shenzhen/hit-motto-blue.png" x="72" y="612" width="520" opacity=".14"/>
<image href="../ppt-media/image25.png" x="1120" y="120" width="520" opacity=".08"/>
<g opacity=".13" fill="none" stroke="#ff7a3d" stroke-width="3" stroke-linejoin="round">
<path d="M0 740H1700"/>
<path d="M88 740V680H145V626H220V690H286V610H350V740"/>
<path d="M446 740V642H500V580H550V516H600V580H652V642H706V740"/>
<path d="M815 740V620H886V564H948V500H1005V564H1068V620H1138V740"/>
<path d="M1260 740V650H1328V598H1390V650H1460V740"/>
</g>
<g opacity=".20" stroke="#ff7a3d" stroke-width="1.4" fill="none">
<path d="M80 610 C230 510 370 690 520 570 S780 520 940 642 1240 700 1506 520"/>
<path d="M180 250 C330 190 474 300 620 238 S900 170 1084 260 1350 345 1510 214" stroke-dasharray="10 14"/>
<circle cx="1180" cy="260" r="180"/><circle cx="1180" cy="260" r="104" stroke-dasharray="9 12"/>
</g>
<g opacity="0.1">
<rect x="1325" y="32" width="10" height="34" rx="2" fill="#ff7a3d" opacity="0.072" transform="rotate(7 1330 170)"/><rect x="1325" y="32" width="10" height="34" rx="2" fill="#ff7a3d" opacity="0.072" transform="rotate(22 1330 170)"/><rect x="1325" y="32" width="10" height="34" rx="2" fill="#ff7a3d" opacity="0.072" transform="rotate(37 1330 170)"/><rect x="1325" y="32" width="10" height="34" rx="2" fill="#ff7a3d" opacity="0.072" transform="rotate(52 1330 170)"/><rect x="1325" y="32" width="10" height="34" rx="2" fill="#ff7a3d" opacity="0.072" transform="rotate(67 1330 170)"/><rect x="1325" y="32" width="10" height="34" rx="2" fill="#ff7a3d" opacity="0.072" transform="rotate(82 1330 170)"/><rect x="1325" y="32" width="10" height="34" rx="2" fill="#ff7a3d" opacity="0.072" transform="rotate(97 1330 170)"/><rect x="1325" y="32" width="10" height="34" rx="2" fill="#ff7a3d" opacity="0.072" transform="rotate(112 1330 170)"/><rect x="1325" y="32" width="10" height="34" rx="2" fill="#ff7a3d" opacity="0.072" transform="rotate(127 1330 170)"/><rect x="1325" y="32" width="10" height="34" rx="2" fill="#ff7a3d" opacity="0.072" transform="rotate(142 1330 170)"/><rect x="1325" y="32" width="10" height="34" rx="2" fill="#ff7a3d" opacity="0.072" transform="rotate(157 1330 170)"/><rect x="1325" y="32" width="10" height="34" rx="2" fill="#ff7a3d" opacity="0.072" transform="rotate(172 1330 170)"/><rect x="1325" y="32" width="10" height="34" rx="2" fill="#ff7a3d" opacity="0.072" transform="rotate(187 1330 170)"/><rect x="1325" y="32" width="10" height="34" rx="2" fill="#ff7a3d" opacity="0.072" transform="rotate(202 1330 170)"/><rect x="1325" y="32" width="10" height="34" rx="2" fill="#ff7a3d" opacity="0.072" transform="rotate(217 1330 170)"/><rect x="1325" y="32" width="10" height="34" rx="2" fill="#ff7a3d" opacity="0.072" transform="rotate(232 1330 170)"/><rect x="1325" y="32" width="10" height="34" rx="2" fill="#ff7a3d" opacity="0.072" transform="rotate(247 1330 170)"/><rect x="1325" y="32" width="10" height="34" rx="2" fill="#ff7a3d" opacity="0.072" transform="rotate(262 1330 170)"/><rect x="1325" y="32" width="10" height="34" rx="2" fill="#ff7a3d" opacity="0.072" transform="rotate(277 1330 170)"/><rect x="1325" y="32" width="10" height="34" rx="2" fill="#ff7a3d" opacity="0.072" transform="rotate(292 1330 170)"/><rect x="1325" y="32" width="10" height="34" rx="2" fill="#ff7a3d" opacity="0.072" transform="rotate(307 1330 170)"/><rect x="1325" y="32" width="10" height="34" rx="2" fill="#ff7a3d" opacity="0.072" transform="rotate(322 1330 170)"/><rect x="1325" y="32" width="10" height="34" rx="2" fill="#ff7a3d" opacity="0.072" transform="rotate(337 1330 170)"/><rect x="1325" y="32" width="10" height="34" rx="2" fill="#ff7a3d" opacity="0.072" transform="rotate(352 1330 170)"/>
<circle cx="1330" cy="170" r="120" fill="none" stroke="#ff7a3d" stroke-width="5"/>
<circle cx="1330" cy="170" r="86.39999999999999" fill="none" stroke="#ff7a3d" stroke-width="2" stroke-dasharray="12 10"/>
<circle cx="1330" cy="170" r="33.6" fill="none" stroke="#ff7a3d" stroke-width="4"/>
</g>
<g opacity="0.08">
<rect x="1455" y="572" width="10" height="34" rx="2" fill="#ff7a3d" opacity="0.0576" transform="rotate(-11 1460 680)"/><rect x="1455" y="572" width="10" height="34" rx="2" fill="#ff7a3d" opacity="0.0576" transform="rotate(4 1460 680)"/><rect x="1455" y="572" width="10" height="34" rx="2" fill="#ff7a3d" opacity="0.0576" transform="rotate(19 1460 680)"/><rect x="1455" y="572" width="10" height="34" rx="2" fill="#ff7a3d" opacity="0.0576" transform="rotate(34 1460 680)"/><rect x="1455" y="572" width="10" height="34" rx="2" fill="#ff7a3d" opacity="0.0576" transform="rotate(49 1460 680)"/><rect x="1455" y="572" width="10" height="34" rx="2" fill="#ff7a3d" opacity="0.0576" transform="rotate(64 1460 680)"/><rect x="1455" y="572" width="10" height="34" rx="2" fill="#ff7a3d" opacity="0.0576" transform="rotate(79 1460 680)"/><rect x="1455" y="572" width="10" height="34" rx="2" fill="#ff7a3d" opacity="0.0576" transform="rotate(94 1460 680)"/><rect x="1455" y="572" width="10" height="34" rx="2" fill="#ff7a3d" opacity="0.0576" transform="rotate(109 1460 680)"/><rect x="1455" y="572" width="10" height="34" rx="2" fill="#ff7a3d" opacity="0.0576" transform="rotate(124 1460 680)"/><rect x="1455" y="572" width="10" height="34" rx="2" fill="#ff7a3d" opacity="0.0576" transform="rotate(139 1460 680)"/><rect x="1455" y="572" width="10" height="34" rx="2" fill="#ff7a3d" opacity="0.0576" transform="rotate(154 1460 680)"/><rect x="1455" y="572" width="10" height="34" rx="2" fill="#ff7a3d" opacity="0.0576" transform="rotate(169 1460 680)"/><rect x="1455" y="572" width="10" height="34" rx="2" fill="#ff7a3d" opacity="0.0576" transform="rotate(184 1460 680)"/><rect x="1455" y="572" width="10" height="34" rx="2" fill="#ff7a3d" opacity="0.0576" transform="rotate(199 1460 680)"/><rect x="1455" y="572" width="10" height="34" rx="2" fill="#ff7a3d" opacity="0.0576" transform="rotate(214 1460 680)"/><rect x="1455" y="572" width="10" height="34" rx="2" fill="#ff7a3d" opacity="0.0576" transform="rotate(229 1460 680)"/><rect x="1455" y="572" width="10" height="34" rx="2" fill="#ff7a3d" opacity="0.0576" transform="rotate(244 1460 680)"/><rect x="1455" y="572" width="10" height="34" rx="2" fill="#ff7a3d" opacity="0.0576" transform="rotate(259 1460 680)"/><rect x="1455" y="572" width="10" height="34" rx="2" fill="#ff7a3d" opacity="0.0576" transform="rotate(274 1460 680)"/><rect x="1455" y="572" width="10" height="34" rx="2" fill="#ff7a3d" opacity="0.0576" transform="rotate(289 1460 680)"/><rect x="1455" y="572" width="10" height="34" rx="2" fill="#ff7a3d" opacity="0.0576" transform="rotate(304 1460 680)"/><rect x="1455" y="572" width="10" height="34" rx="2" fill="#ff7a3d" opacity="0.0576" transform="rotate(319 1460 680)"/><rect x="1455" y="572" width="10" height="34" rx="2" fill="#ff7a3d" opacity="0.0576" transform="rotate(334 1460 680)"/>
<circle cx="1460" cy="680" r="90" fill="none" stroke="#ff7a3d" stroke-width="5"/>
<circle cx="1460" cy="680" r="64.8" fill="none" stroke="#ff7a3d" stroke-width="2" stroke-dasharray="12 10"/>
<circle cx="1460" cy="680" r="25.200000000000003" fill="none" stroke="#ff7a3d" stroke-width="4"/>
</g>
<g opacity="0.08">
<rect x="240" y="570" width="10" height="34" rx="2" fill="#ff7a3d" opacity="0.0576" transform="rotate(12 245 672)"/><rect x="240" y="570" width="10" height="34" rx="2" fill="#ff7a3d" opacity="0.0576" transform="rotate(27 245 672)"/><rect x="240" y="570" width="10" height="34" rx="2" fill="#ff7a3d" opacity="0.0576" transform="rotate(42 245 672)"/><rect x="240" y="570" width="10" height="34" rx="2" fill="#ff7a3d" opacity="0.0576" transform="rotate(57 245 672)"/><rect x="240" y="570" width="10" height="34" rx="2" fill="#ff7a3d" opacity="0.0576" transform="rotate(72 245 672)"/><rect x="240" y="570" width="10" height="34" rx="2" fill="#ff7a3d" opacity="0.0576" transform="rotate(87 245 672)"/><rect x="240" y="570" width="10" height="34" rx="2" fill="#ff7a3d" opacity="0.0576" transform="rotate(102 245 672)"/><rect x="240" y="570" width="10" height="34" rx="2" fill="#ff7a3d" opacity="0.0576" transform="rotate(117 245 672)"/><rect x="240" y="570" width="10" height="34" rx="2" fill="#ff7a3d" opacity="0.0576" transform="rotate(132 245 672)"/><rect x="240" y="570" width="10" height="34" rx="2" fill="#ff7a3d" opacity="0.0576" transform="rotate(147 245 672)"/><rect x="240" y="570" width="10" height="34" rx="2" fill="#ff7a3d" opacity="0.0576" transform="rotate(162 245 672)"/><rect x="240" y="570" width="10" height="34" rx="2" fill="#ff7a3d" opacity="0.0576" transform="rotate(177 245 672)"/><rect x="240" y="570" width="10" height="34" rx="2" fill="#ff7a3d" opacity="0.0576" transform="rotate(192 245 672)"/><rect x="240" y="570" width="10" height="34" rx="2" fill="#ff7a3d" opacity="0.0576" transform="rotate(207 245 672)"/><rect x="240" y="570" width="10" height="34" rx="2" fill="#ff7a3d" opacity="0.0576" transform="rotate(222 245 672)"/><rect x="240" y="570" width="10" height="34" rx="2" fill="#ff7a3d" opacity="0.0576" transform="rotate(237 245 672)"/><rect x="240" y="570" width="10" height="34" rx="2" fill="#ff7a3d" opacity="0.0576" transform="rotate(252 245 672)"/><rect x="240" y="570" width="10" height="34" rx="2" fill="#ff7a3d" opacity="0.0576" transform="rotate(267 245 672)"/><rect x="240" y="570" width="10" height="34" rx="2" fill="#ff7a3d" opacity="0.0576" transform="rotate(282 245 672)"/><rect x="240" y="570" width="10" height="34" rx="2" fill="#ff7a3d" opacity="0.0576" transform="rotate(297 245 672)"/><rect x="240" y="570" width="10" height="34" rx="2" fill="#ff7a3d" opacity="0.0576" transform="rotate(312 245 672)"/><rect x="240" y="570" width="10" height="34" rx="2" fill="#ff7a3d" opacity="0.0576" transform="rotate(327 245 672)"/><rect x="240" y="570" width="10" height="34" rx="2" fill="#ff7a3d" opacity="0.0576" transform="rotate(342 245 672)"/><rect x="240" y="570" width="10" height="34" rx="2" fill="#ff7a3d" opacity="0.0576" transform="rotate(357 245 672)"/>
<circle cx="245" cy="672" r="84" fill="none" stroke="#ff7a3d" stroke-width="5"/>
<circle cx="245" cy="672" r="60.48" fill="none" stroke="#ff7a3d" stroke-width="2" stroke-dasharray="12 10"/>
<circle cx="245" cy="672" r="23.520000000000003" fill="none" stroke="#ff7a3d" stroke-width="4"/>
</g>
<path d="M-80 760 C350 610 640 860 1040 690 C1260 596 1480 660 1740 530" fill="none" stroke="#ff7a3d" opacity=".24" stroke-width="14"/>
<path d="M-60 790 C360 662 650 865 1050 728 C1280 650 1490 710 1740 590" fill="none" stroke="#005375" opacity=".11" stroke-width="34"/>
<text x="82" y="130" fill="#005375" opacity=".14" font-size="40" font-family="Georgia,serif" font-weight="700">COURSE CAPSULE</text>
</svg>