<svg width="520" height="360" viewBox="0 0 520 360" fill="none" xmlns="http://www.w3.org/2000/svg">
  <defs>
    <linearGradient id="panel" x1="42" y1="58" x2="480" y2="318" gradientUnits="userSpaceOnUse">
      <stop stop-color="#FFFFFF" stop-opacity="0.26"/>
      <stop offset="1" stop-color="#005375" stop-opacity="0.10"/>
    </linearGradient>
    <linearGradient id="gold" x1="70" y1="68" x2="448" y2="304" gradientUnits="userSpaceOnUse">
      <stop stop-color="#D7B66F"/>
      <stop offset="1" stop-color="#B08A3B"/>
    </linearGradient>
    <filter id="shadow" x="0" y="0" width="520" height="360" filterUnits="userSpaceOnUse" color-interpolation-filters="sRGB">
      <feDropShadow dx="0" dy="24" stdDeviation="22" flood-color="#001B27" flood-opacity="0.28"/>
    </filter>
  </defs>

  <g filter="url(#shadow)">
    <path d="M58 286L448 286L482 96L96 96L58 286Z" fill="url(#panel)" stroke="url(#gold)" stroke-width="2.5"/>
    <path d="M96 96L482 96L462 116L76 116L96 96Z" fill="#F8F2DD" fill-opacity="0.22"/>
    <path d="M58 286H448L432 306H42L58 286Z" fill="#D7B66F" fill-opacity="0.42"/>
  </g>

  <g opacity="0.86">
    <path d="M162 255H356" stroke="#E9F7FA" stroke-width="5" stroke-linecap="round"/>
    <path d="M187 255V150H331V255" stroke="#E9F7FA" stroke-width="5" stroke-linejoin="round"/>
    <path d="M207 150V118H311V150" stroke="#E9F7FA" stroke-width="5" stroke-linejoin="round"/>
    <path d="M236 118V83H282V118" stroke="#E9F7FA" stroke-width="5" stroke-linejoin="round"/>
    <path d="M259 82V42" stroke="#D7B66F" stroke-width="6" stroke-linecap="round"/>
    <path d="M232 82H286" stroke="#D7B66F" stroke-width="5" stroke-linecap="round"/>
    <path d="M214 177H235M249 177H270M284 177H305M214 205H235M249 205H270M284 205H305M214 233H235M249 233H270M284 233H305" stroke="#E9F7FA" stroke-width="4" stroke-linecap="round"/>
  </g>

  <g opacity="0.34" stroke="#D7B66F" stroke-width="1.6">
    <circle cx="392" cy="134" r="48"/>
    <circle cx="392" cy="134" r="23"/>
    <path d="M392 78V54M392 214V190M336 134H312M472 134H448M352 94L335 77M449 191L432 174M432 94L449 77M335 191L352 174"/>
  </g>

  <g opacity="0.42" stroke="#7CE4DA" stroke-width="1.4">
    <path d="M102 250C132 218 176 212 230 232C290 254 354 244 416 202" stroke-dasharray="8 10"/>
    <path d="M118 210C158 180 204 176 256 195C316 217 370 206 430 158" stroke-dasharray="4 9"/>
    <path d="M112 146H170M348 242H416M132 170H176M360 216H442" stroke-linecap="round"/>
  </g>

  <g opacity="0.32" fill="#E9F7FA">
    <rect x="106" y="274" width="18" height="4" rx="2"/>
    <rect x="132" y="274" width="44" height="4" rx="2"/>
    <rect x="368" y="104" width="56" height="4" rx="2"/>
    <rect x="382" y="166" width="42" height="4" rx="2"/>
  </g>
</svg>
